<?xml version="1.0" encoding="utf-8"?>
<!DOCTYPE svg PUBLIC "-//W3C//DTD SVG 20010904//EN" "http://www.w3.org/TR/2001/REC-SVG-20010904/DTD/svg10.dtd">
<svg version="1.0" xmlns="http://www.w3.org/2000/svg" width="680px" height="689px" viewBox="0 0 680 689" preserveAspectRatio="xMidYMid meet">
 <g fill="#000000">
  <path d="M498 449.70 c-0.70 -0.35 -1.65 -0.70 -2.10 -0.70 -0.45 0 -1 -0.20 -1.15 -0.50 -0.15 -0.25 -1.20 -0.50 -2.25 -0.50 -1.05 0 -2.10 -0.20 -2.25 -0.50 -0.15 -0.25 -0.95 -0.50 -1.70 -0.50 -0.75 0 -1.55 -0.15 -1.75 -0.35 -0.20 -0.25 -1.65 -0.65 -3.20 -1 -1.55 -0.30 -3.95 -0.85 -5.35 -1.15 -1.35 -0.35 -3.05 -0.70 -3.75 -0.80 -0.70 -0.10 -2.10 -0.35 -3.15 -0.50 -1 -0.15 -2 -0.50 -2.15 -0.75 -0.15 -0.25 -0.90 -0.45 -1.70 -0.45 -0.80 0 -1.55 -0.20 -1.70 -0.45 -0.15 -0.25 -1 -0.55 -1.90 -0.70 -0.90 -0.15 -3.45 -0.65 -5.65 -1.10 -2.20 -0.40 -5.25 -1 -6.75 -1.30 -1.50 -0.25 -2.95 -0.70 -3.25 -1 -0.25 -0.25 -1.30 -0.45 -2.30 -0.45 -1.05 0 -2.05 -0.20 -2.20 -0.50 -0.15 -0.25 -0.85 -0.50 -1.55 -0.50 -0.65 0 -1.60 -0.20 -2.10 -0.45 -2.85 -1.45 -7.25 -2.05 -7.85 -1.05 -0.15 0.30 -0.95 0.50 -1.75 0.50 -0.80 0 -1.60 0.25 -1.75 0.50 -0.15 0.30 -1.10 0.50 -2.05 0.50 -0.95 0 -1.70 0.25 -1.70 0.50 0 0.30 -0.55 0.50 -1.20 0.50 -0.70 0 -1.35 0.20 -1.50 0.40 -0.15 0.25 -1.50 0.70 -3 1.05 -1.55 0.35 -2.90 0.85 -3.05 1.10 -0.20 0.25 -0.70 0.45 -1.15 0.45 -0.45 0 -1.85 0.50 -3.10 1.10 -3.35 1.60 -4 1.80 -7.20 2.15 -1.65 0.15 -4 0.75 -5.20 1.25 -1.25 0.55 -3.15 1.15 -4.20 1.30 -1.05 0.20 -2.05 0.55 -2.20 0.75 -0.40 0.65 -27.55 0.55 -27.95 -0.05 -0.15 -0.25 -0.85 -0.50 -1.45 -0.50 -1.75 0 -5.40 -1.40 -6.60 -2.55 -0.60 -0.55 -2.05 -1.55 -3.25 -2.15 -2.40 -1.30 -4.90 -4.40 -4.95 -6.15 0 -0.60 -0.20 -1.25 -0.50 -1.40 -0.60 -0.40 -0.70 -15.10 -0.05 -15.45 0.25 -0.15 0.55 -0.80 0.70 -1.40 0.10 -0.65 0.40 -1.55 0.60 -2 0.30 -0.75 0.10 -0.90 -1.15 -0.90 -0.85 0 -1.65 -0.20 -1.80 -0.45 -0.15 -0.25 -1 -0.55 -1.90 -0.70 -2.10 -0.35 -7.95 -1.60 -10.90 -2.35 -1.25 -0.30 -2.70 -0.55 -3.25 -0.55 -0.50 0 -1.20 -0.20 -1.50 -0.40 -0.45 -0.40 -1.55 -0.65 -5.35 -1.35 -0.90 -0.15 -2.10 -0.45 -2.65 -0.70 -0.55 -0.25 -1.65 -0.55 -2.50 -0.75 -0.80 -0.15 -2.95 -0.65 -4.75 -1.05 -3.45 -0.80 -9.65 -2.05 -12.35 -2.55 -0.90 -0.15 -1.65 -0.45 -1.65 -0.65 0 -0.35 -1.15 -0.65 -5.35 -1.30 -1.05 -0.15 -2.25 -0.40 -2.65 -0.55 -0.40 -0.15 -1.20 -0.35 -1.75 -0.40 -0.55 -0.10 -2.80 -0.60 -5 -1.20 -2.20 -0.55 -4.50 -1.05 -5.10 -1.05 -0.60 0 -1.20 -0.20 -1.35 -0.45 -0.15 -0.25 -1.15 -0.55 -2.15 -0.70 -2.70 -0.40 -4.75 -0.85 -5.90 -1.35 -0.55 -0.25 -2.35 -0.70 -4 -0.95 -1.65 -0.25 -4.55 -0.85 -6.50 -1.30 -1.90 -0.45 -4.25 -0.95 -5.15 -1.10 -0.90 -0.15 -1.75 -0.45 -1.90 -0.70 -0.15 -0.25 -1.15 -0.45 -2.20 -0.45 -1.05 0 -2.05 -0.20 -2.20 -0.45 -0.15 -0.25 -1.15 -0.55 -2.15 -0.70 -5.65 -0.85 -8.95 -1.45 -9.65 -1.85 -0.40 -0.25 -2.40 -0.60 -4.40 -0.75 -2 -0.20 -3.75 -0.60 -3.90 -0.80 -0.15 -0.25 -0.90 -0.45 -1.65 -0.45 -0.75 0 -1.60 -0.25 -1.95 -0.60 -0.45 -0.45 -0.75 -0.45 -1.20 0 -0.75 0.75 -2.70 0.80 -3.15 0.10 -0.15 -0.30 -0.95 -0.50 -1.75 -0.50 -0.80 0 -1.60 -0.20 -1.75 -0.50 -0.15 -0.25 -0.95 -0.50 -1.70 -0.50 -0.80 0 -1.70 -0.35 -2.05 -0.75 -0.35 -0.40 -1.25 -0.75 -2 -0.75 -0.75 0 -2.20 0.35 -3.15 0.75 -1 0.40 -2.50 0.75 -3.30 0.75 -1.35 0 -2.20 0.25 -5.30 1.55 -0.55 0.20 -2.25 0.80 -3.75 1.20 -3.40 1 -6.15 2.05 -8.65 3.30 -1.10 0.55 -2.45 0.95 -3.10 0.95 -0.65 0 -1.35 0.25 -1.50 0.50 -0.15 0.30 -1.05 0.50 -1.90 0.50 -0.90 0 -3.15 0.55 -5.05 1.25 -1.95 0.65 -4.80 1.35 -6.40 1.55 -1.60 0.20 -3.05 0.55 -3.20 0.75 -0.35 0.60 -22.55 0.60 -22.90 0 -0.15 -0.20 -1.60 -0.55 -3.20 -0.65 -2.95 -0.30 -6.30 -1.75 -8.95 -3.95 -0.50 -0.40 -1.55 -1.05 -2.40 -1.45 -2.25 -1.10 -2.50 -1.45 -4.20 -5.65 -0.65 -1.65 -0.75 -17.65 -0.10 -18.05 0.25 -0.15 0.60 -1.10 0.80 -2.10 0.35 -1.95 2.50 -6.80 3.75 -8.40 0.40 -0.55 2.35 -2.70 4.25 -4.80 1.95 -2.15 4.05 -4.70 4.75 -5.75 0.70 -1 1.95 -2.70 2.80 -3.70 0.85 -1 1.70 -2.25 1.90 -2.80 0.15 -0.60 2.80 -3.50 5.80 -6.45 3.05 -3 5.50 -5.70 5.50 -6 0 -0.30 2.65 -3.15 5.85 -6.35 5.30 -5.20 6.85 -6.50 9.60 -8.20 0.70 -0.45 2.65 -1.95 8.85 -7 0.90 -0.70 1.80 -1.25 2.05 -1.25 0.30 0 3.95 -3.45 8.20 -7.65 4.25 -4.20 8.45 -8.20 9.40 -8.85 0.95 -0.70 2.30 -1.70 3 -2.30 0.70 -0.55 1.65 -1.20 2.05 -1.35 0.40 -0.20 1.75 -1.10 3 -2.05 1.25 -0.95 3.15 -2.35 4.25 -3.10 1.10 -0.80 2.50 -1.85 3.10 -2.35 1.25 -1.10 2.65 -1.95 4.95 -3.05 0.85 -0.40 1.80 -1.10 2.20 -1.50 0.35 -0.45 0.80 -0.80 1 -0.80 0.30 0 2.45 -1.20 8.25 -4.65 0.55 -0.35 1.10 -0.70 1.25 -0.85 0.45 -0.45 11.05 -5.50 11.55 -5.50 0.25 0 0.45 -0.20 0.45 -0.50 0 -0.25 0.50 -0.50 1.15 -0.50 0.60 0 1.55 -0.35 2.05 -0.75 0.55 -0.40 1.50 -0.75 2.10 -0.75 0.65 0 1.25 -0.20 1.40 -0.45 0.15 -0.25 1.15 -0.60 2.15 -0.85 1.05 -0.20 2 -0.40 2.15 -0.45 1.05 -0.35 2.40 -0.90 3.10 -1.30 0.50 -0.25 1.35 -0.45 1.85 -0.45 0.55 0 1.15 -0.20 1.30 -0.50 0.15 -0.25 0.95 -0.50 1.75 -0.50 0.80 0 1.60 -0.20 1.75 -0.50 0.15 -0.25 0.70 -0.50 1.20 -0.50 0.50 0 1.60 -1.05 2.55 -2.35 0.90 -1.35 5.50 -6.35 10.20 -11.20 4.70 -4.85 9.05 -9.50 9.70 -10.35 0.60 -0.85 1.85 -1.90 2.70 -2.30 1.75 -0.90 4.90 -1.05 4.90 -0.30 0 0.30 0.30 0.50 0.65 0.50 0.75 0 8.35 7.55 8.35 8.30 0 0.25 0.45 0.80 1 1.20 0.55 0.40 1 0.95 1 1.20 0 0.25 0.90 1.50 2 2.75 1.10 1.25 2.75 3.25 3.75 4.35 2.30 2.70 6.25 8.70 6.25 9.55 0 0.35 0.20 0.65 0.45 0.65 0.25 0 0.55 0.45 0.70 0.95 0.15 0.60 0.90 1.10 1.90 1.30 0.95 0.20 1.95 0.55 2.20 0.75 0.30 0.25 1.80 0.55 3.40 0.75 1.55 0.20 3 0.55 3.15 0.80 0.15 0.25 0.90 0.45 1.70 0.45 0.80 0 1.60 0.25 1.75 0.50 0.15 0.30 0.85 0.50 1.50 0.50 0.65 0 1.30 0.20 1.45 0.45 0.15 0.25 0.80 0.55 1.40 0.70 0.65 0.15 2.35 0.70 3.80 1.25 1.45 0.55 2.70 1 2.75 1 0.15 -0.10 3.45 1.40 7.70 3.40 2 0.95 3.85 1.70 4.10 1.70 0.50 0 1.95 0.60 6.30 2.55 1.75 0.75 4 1.55 4.75 1.70 1.40 0.20 9.50 3 11.10 3.80 0.50 0.25 1.35 0.45 1.85 0.45 0.55 0 1.10 0.20 1.25 0.45 0.15 0.25 1.10 0.60 2.15 0.80 1 0.20 2.65 0.75 3.65 1.25 0.95 0.50 1.85 0.90 2 0.85 0.70 -0.05 14 6.20 18.75 8.80 4.85 2.70 5.45 3.05 6.30 3.75 0.95 0.75 3.95 2.40 7.80 4.35 1.45 0.70 2.75 1.50 2.90 1.75 0.55 0.90 9.80 5 11.25 5 0.55 0 2 0.60 3.25 1.30 1.75 0.95 2.70 1.20 3.90 0.90 1.45 -0.30 3.30 -1.10 3.85 -1.70 0.25 -0.30 2.70 -1.30 6.65 -2.80 1.15 -0.45 3 -1.20 4.10 -1.70 3.50 -1.55 10.95 -4.45 12.45 -4.80 0.85 -0.20 2.65 -1 4.10 -1.75 4.85 -2.55 7.70 -2.45 8.90 0.25 1.80 4.10 1.85 4.50 1.65 18.30 -0.25 13.65 -0.55 17.80 -1.40 18.70 -0.25 0.30 -0.45 1.10 -0.45 1.80 0 0.70 -0.20 1.50 -0.40 1.80 -0.20 0.25 -0.70 1.35 -1.05 2.45 -0.60 2.05 -2.35 6.35 -3.10 7.85 -0.25 0.50 -0.45 1.25 -0.45 1.65 0 0.40 -0.20 1.15 -0.45 1.65 -0.95 1.80 -1.25 3 -1.85 7.85 -0.80 6.45 -1.30 8.90 -2.45 12.10 -0.95 2.60 -0.95 2.60 1.50 5.40 3.05 3.60 4.45 5.70 5.75 8.50 0.55 1.20 1.20 2.30 1.45 2.50 0.55 0.30 2.05 3.20 2.05 3.90 0 0.25 1.80 4.10 4 8.45 2.20 4.40 4.10 8.35 4.20 8.80 0.20 1.10 0.75 2.65 1.35 3.70 0.25 0.50 0.45 1.20 0.45 1.60 0 0.40 0.45 1.55 0.95 2.65 0.55 1.05 1.45 3.60 2.05 5.65 0.60 2.05 1.30 4.15 1.55 4.60 0.25 0.50 0.45 1.45 0.45 2.10 0 0.70 0.25 1.40 0.50 1.55 0.30 0.15 0.50 0.95 0.50 1.70 0 0.75 0.20 1.55 0.45 1.85 0.25 0.25 0.60 2.35 0.75 4.70 0.15 2.35 0.45 5.25 0.60 6.50 0.20 1.25 0.35 3.85 0.40 5.75 0.05 3.50 0.05 3.50 -1.45 3.60 -0.80 0.05 -2.05 -0.25 -2.75 -0.65z m-102.75 -12.70 c3.45 -1.10 7 -2 7.90 -2 0.90 0 2.95 -0.60 4.60 -1.30 6.20 -2.60 14.25 -5.25 22.15 -7.25 8.05 -2 8.30 -2.05 15.25 -1.85 8.50 0.25 9.85 0.70 9.85 3.35 0 1.80 0 1.80 5.15 3.15 12.45 3.35 15.10 4 23.50 5.55 8.85 1.70 8.85 1.70 8.85 0.15 -0.05 -3.25 -2.35 -10.55 -7.40 -23.10 -6.75 -16.80 -12.60 -28.30 -17.40 -34.30 -4.25 -5.25 -4.70 -6.20 -4.70 -10.30 0 -2.80 0.30 -4.10 1.50 -6.75 0.85 -1.95 1.50 -4.15 1.50 -5.35 0 -1.10 0.20 -2.95 0.45 -4.10 0.30 -1.20 0.75 -3.60 1.05 -5.40 0.30 -1.80 2 -7 3.75 -11.55 4.05 -10.55 4.75 -14.25 4.75 -25.05 0 -8.50 0 -8.50 -1.35 -8.15 -2 0.45 -17.35 6.70 -24.15 9.80 -5.10 2.30 -6.15 2.60 -9.35 2.65 -3.10 0.05 -3.75 -0.10 -4.80 -1.10 -0.65 -0.65 -3.20 -1.90 -5.65 -2.80 -6.45 -2.40 -8.20 -3.30 -23.95 -12.60 -12.20 -7.15 -17.10 -9.35 -33.55 -14.90 -13.25 -4.45 -15.95 -5.45 -26.95 -10.20 -8.85 -3.80 -17.35 -6.75 -24.90 -8.60 -7.50 -1.90 -9.20 -3 -11.50 -7.75 -0.95 -1.95 -3.50 -5.80 -5.65 -8.50 -2.20 -2.75 -5.50 -7 -7.40 -9.45 -3.50 -4.45 -3.50 -4.45 -11.50 3.75 -4.45 4.50 -9.40 9.90 -11.10 11.95 -2.25 2.85 -3.35 3.80 -4.45 3.90 -2.45 0.30 -20.30 6.55 -24.75 8.65 -10.80 5.20 -24.10 13.50 -36.50 22.75 -7.85 5.90 -21 16.65 -21 17.20 0 0.20 -3.15 3 -7.05 6.30 -8.05 6.85 -29.95 28.10 -29.95 29.10 0 0.35 -1.10 1.85 -2.50 3.30 -1.35 1.45 -2.50 2.80 -2.50 3 0 0.15 -1.60 2.15 -3.55 4.45 -3.10 3.55 -4.35 5.60 -6.90 11.35 -0.30 0.70 -1.15 2 -1.80 2.95 -1.15 1.55 -1.25 2.15 -1.25 6.60 0 2.70 0.25 5.50 0.60 6.20 0.30 0.70 1.60 1.85 2.85 2.55 1.25 0.75 2.75 1.75 3.30 2.25 1.50 1.35 8.85 2.45 16.20 2.45 7.70 0 11.95 -0.65 15.50 -2.35 3.60 -1.65 17.20 -5.85 22.55 -6.90 2.35 -0.50 5.60 -1.40 7.25 -2 1.65 -0.65 3.80 -1.30 4.75 -1.50 0.95 -0.20 2.45 -0.80 3.30 -1.30 2.05 -1.25 6.15 -1.25 8.60 0 2.10 1.05 13.05 3.65 26.35 6.25 4.95 0.95 11.05 2.25 13.50 2.85 2.50 0.55 6.85 1.60 9.75 2.20 2.90 0.65 9.30 2.20 14.25 3.40 4.95 1.20 14.50 3.50 21.25 5.10 6.75 1.55 16.30 3.85 21.25 5 4.95 1.20 11.60 2.75 14.75 3.50 8.30 1.90 13.85 3.25 14.65 3.55 0.45 0.15 1.40 -0.70 2.60 -2.30 1 -1.40 3.10 -3.55 4.60 -4.75 2.60 -2.15 2.90 -2.25 5.90 -2.25 3.80 0 4.75 0.90 4.75 4.45 0 2.15 -0.20 2.40 -3.75 5.80 -2.05 2 -3.75 3.85 -3.75 4.15 0 0.60 -3.15 5.35 -5.35 8.05 -1.25 1.55 -1.40 2.15 -1.55 6.30 -0.25 5.50 0.50 7.75 3 9.05 0.90 0.45 2.40 1.40 3.30 2.10 2.65 2 5.95 2.50 16.70 2.55 9.85 0.05 9.85 0.05 16.15 -1.95z"/>
  <path d="M352.20 378.45 c-0.85 -0.25 -2.20 -1.05 -2.95 -1.80 -1.35 -1.40 -1.35 -1.45 -1.10 -6.20 0.30 -5.40 0.95 -7.15 3.60 -9.30 4.95 -4.10 12.80 -4.05 14.65 0.15 0.35 0.75 0.60 3.90 0.60 7.75 0 7.25 -0.40 8.45 -3.10 9.40 -1.85 0.65 -9.50 0.65 -11.70 0z"/>
  <path d="M294.65 360.50 c-3.25 -0.65 -7.45 -3.75 -9 -6.70 -0.45 -0.80 -1.15 -0.90 -7.55 -0.85 -7.85 0.10 -9.65 -0.35 -12.50 -3.10 -2.55 -2.40 -3.10 -3.85 -3.10 -8 0 -4.75 0.95 -5.85 5.05 -5.85 2.35 0 2.95 0.20 4.10 1.40 0.80 0.80 1.35 1.95 1.35 2.75 0 3.50 6.10 3.85 10.85 0.55 2.40 -1.65 2.90 -1.80 5.25 -1.60 2.95 0.30 4.90 2 4.90 4.30 0.05 2.25 1.80 5.45 3.50 6.35 1.25 0.65 2.40 0.75 6.25 0.45 7.15 -0.50 8.75 0.45 8.75 5.20 0 3.55 -0.95 4.55 -5 5.10 -3.85 0.55 -9.95 0.55 -12.85 0z"/>
  <path d="M238.05 343.05 c-3.70 -0.65 -5.05 -3.35 -5.05 -10.05 0.05 -8.10 4.40 -12.05 12.45 -11.30 3.50 0.30 5.65 1.35 7.25 3.45 0.95 1.25 1.05 2.10 1.05 7.25 0 5.20 -0.15 6.05 -1.10 7.65 -0.60 0.95 -1.75 2.05 -2.50 2.40 -1.65 0.80 -9 1.15 -12.10 0.60z"/>
 </g>
 <g fill="#ffffff">
  <path d="M365.15 439.80 c-1.45 -0.35 -3.35 -1.20 -4.25 -1.90 -0.90 -0.70 -2.40 -1.65 -3.30 -2.10 -2.65 -1.35 -3.20 -3.40 -3 -10.55 0.15 -5.80 0.20 -6.20 1.55 -7.80 2.15 -2.65 5.25 -7.30 5.60 -8.40 0.15 -0.50 1.75 -2.25 3.50 -3.75 3.65 -3.20 4.20 -4.30 3.05 -6.05 -1.90 -2.90 -7 -0.35 -11.70 5.95 -2.35 3.10 -1.70 2.95 -7.60 1.50 -1.50 -0.40 -6.20 -1.50 -10.40 -2.50 -4.25 -0.95 -11.80 -2.70 -16.75 -3.90 -5 -1.20 -14.60 -3.50 -21.35 -5.05 -6.75 -1.60 -16.30 -3.90 -21.25 -5.10 -4.95 -1.20 -11.35 -2.75 -14.25 -3.40 -2.90 -0.60 -7.25 -1.65 -9.75 -2.20 -2.45 -0.60 -8.55 -1.90 -13.50 -2.85 -13.30 -2.60 -24.25 -5.20 -26.35 -6.25 -2.35 -1.20 -3.65 -1.20 -5.60 0 -0.85 0.50 -2.35 1.10 -3.30 1.30 -0.95 0.20 -3.10 0.85 -4.75 1.50 -1.65 0.60 -4.90 1.50 -7.25 2 -5.35 1.05 -18.95 5.25 -22.55 6.90 -3.70 1.75 -7.85 2.35 -17 2.35 -8.85 0 -16.10 -1 -17.70 -2.45 -0.55 -0.50 -2.05 -1.50 -3.30 -2.25 -1.25 -0.70 -2.55 -1.85 -2.85 -2.55 -0.35 -0.80 -0.60 -3.90 -0.60 -7.70 0 -6 0.05 -6.50 1.25 -8.10 0.65 -0.95 1.50 -2.25 1.80 -2.95 2.55 -5.75 3.80 -7.80 6.90 -11.35 1.95 -2.30 3.55 -4.30 3.55 -4.45 0 -0.20 1.15 -1.55 2.50 -3 1.40 -1.45 2.50 -2.95 2.50 -3.30 0 -1 21.90 -22.25 29.95 -29.10 3.90 -3.30 7.05 -6.10 7.05 -6.30 0 -0.55 13.15 -11.30 21 -17.20 12.40 -9.25 25.70 -17.55 36.50 -22.75 4.85 -2.30 22.50 -8.50 24.70 -8.70 1.20 -0.10 2.10 -0.85 4.50 -3.85 3.60 -4.40 19.85 -21.25 20.50 -21.25 1.25 0 16.05 19.20 18.15 23.50 2.30 4.75 4 5.90 11.50 7.75 7.55 1.85 16.05 4.80 24.90 8.60 11 4.75 13.70 5.75 26.95 10.20 16.45 5.55 21.35 7.75 33.55 14.90 15.75 9.30 17.50 10.20 23.95 12.60 2.45 0.90 4.95 2.15 5.60 2.75 1.90 1.80 4.75 1.40 11.30 -1.55 4.85 -2.20 9.10 -3.95 25.50 -10.45 1.30 -0.50 2.45 -0.80 2.60 -0.65 0.15 0.15 0.30 4.95 0.30 10.65 0 12.85 -0.55 15.95 -4.75 26.90 -1.75 4.55 -3.45 9.75 -3.75 11.55 -0.30 1.80 -0.75 4.20 -1.05 5.40 -0.25 1.15 -0.45 3 -0.45 4.10 0 1.20 -0.65 3.40 -1.50 5.35 -1.65 3.65 -1.90 6.45 -0.75 8.70 0.45 0.80 2.20 3.20 3.95 5.35 1.70 2.15 4.30 6.05 5.70 8.65 6.25 11.60 15.55 33.95 18.15 43.70 0.85 3.20 1.30 9.25 0.70 9.85 -0.35 0.30 -19.45 -3.35 -25.25 -4.85 -16.15 -4.25 -15 -3.80 -15 -5.80 0 -2.50 -1.45 -3.10 -8.30 -3.35 -5.25 -0.20 -6.05 -0.10 -13.75 1.85 -7.95 2 -16 4.65 -22.20 7.25 -1.65 0.70 -3.70 1.30 -4.60 1.30 -0.90 0 -4.45 0.90 -7.90 2 -6.30 2 -6.30 2 -17.65 1.95 -7.30 0 -12.30 -0.25 -13.95 -0.65z m-2.75 -62.85 c2.55 -0.90 3.10 -2.30 3.10 -7.95 0 -6.60 -0.65 -7.90 -4.70 -9.20 -1.35 -0.45 -5.45 1.10 -7.55 2.85 -2.40 1.95 -3.20 3.65 -3.55 7.70 -0.30 3.25 -0.25 3.45 1.05 4.80 0.75 0.75 2.10 1.55 2.95 1.80 2.20 0.65 6.85 0.65 8.70 0z m-53.65 -18.45 c2.70 -1.05 2.90 -4.90 0.30 -6.20 -1.10 -0.60 -2.55 -0.70 -6.40 -0.45 -4.10 0.25 -5.20 0.15 -6.60 -0.55 -1.75 -0.95 -3.50 -4.10 -3.55 -6.35 0 -1.70 -1.65 -3.75 -3.30 -4.15 -1 -0.25 -1.90 0.05 -4 1.50 -2.50 1.75 -3.05 1.90 -6.95 2.10 -4.95 0.25 -6.75 -0.50 -6.75 -2.75 0 -1.75 -2.30 -4.15 -3.95 -4.15 -2.05 0 -3.55 1.85 -3.55 4.35 0 1.20 0.30 2.80 0.70 3.60 1.10 2.10 4.50 4.90 6.70 5.60 2 0.60 11.85 0.40 13.95 -0.30 0.80 -0.25 1.15 -0.10 1.40 0.75 0.90 2.85 5.75 6.75 9.40 7.50 2.45 0.55 10.75 0.20 12.60 -0.50z m-60.05 -17.55 c2.25 -1.05 3.45 -3.65 3.65 -7.90 0.25 -4.40 -0.60 -6.60 -3.20 -8.35 -4.70 -3.15 -11.35 -1.20 -13.70 4.05 -1.55 3.35 -1.05 8.75 1 11.30 1.50 1.85 8.90 2.40 12.25 0.90z"/>
 </g>
</svg>